<svg id="hammer_screwdriver" xmlns="http://www.w3.org/2000/svg" viewBox="0 0 32 32"><title>contact</title><g id="speech_bubbles"><path d="M15,2a6,6,0,0,1,6,6v2a6,6,0,0,1-6,6H13L8,21V16a6,6,0,0,1-6-6V8A6,6,0,0,1,8,2h7m9,9a6,6,0,0,1,6,6v2a6,6,0,0,1-6,6v5l-5-5H17a6,6,0,0,1-5.78-4.39L13.83,18H15a8,8,0,0,0,7.93-7H24M15,0H8A8,8,0,0,0,0,8v2a8,8,0,0,0,6,7.75V21a2,2,0,0,0,3.41,1.41l0.25-.25A8,8,0,0,0,17,27h1.17l4.42,4.41A2,2,0,0,0,26,30V26.75A8,8,0,0,0,32,19V17a8,8,0,0,0-8-8H23V8a8,8,0,0,0-8-8h0Z" style="fill:#231f20"/></g></svg>