<svg id="Layer_1" data-name="Layer 1" xmlns="http://www.w3.org/2000/svg" xmlns:xlink="http://www.w3.org/1999/xlink" viewBox="0 0 374.67 571.53"><defs><clipPath id="clip-path" transform="translate(-0.92)"><rect width="375.59" height="571.53" style="fill:none"/></clipPath></defs><title>logo-bovag</title><rect width="374.67" height="571.53" style="fill:#fff"/><g style="clip-path:url(#clip-path)"><path d="M200.32,229a39.1,39.1,0,0,1-12.56,2.09c-22,0-39.79-18.09-39.79-40.41s17.81-40.41,39.79-40.41,39.79,18.09,39.79,40.41A40.89,40.89,0,0,1,226.2,201l65,60.71a127.53,127.53,0,0,0,21.39-71c0-70-55.89-126.77-124.84-126.77S62.94,120.68,62.94,190.69s55.88,126.76,124.82,126.76a123.1,123.1,0,0,0,77.71-27.59Z" transform="translate(-0.92)"/><rect x="27.7" y="352.32" width="318.31" height="190.15" style="fill:#fecb00"/><path d="M57.65,388h24.6c13.93,0,20.33,8.66,20.33,21.31v18.82c-0.16,10.33-6.06,13.49-16.06,15.82v0.33c11,2.18,16.56,5.16,16.56,18.48v18.82c0,14.16-6.39,25-21,25H57.65V388ZM75,437.12H79c4.42,0,6.22-2,6.22-8.82v-18c0-6.84-1.8-8.82-6.22-8.82H75v35.62Zm0,55.28h3.44c4.92,0,7.22-2,7.22-9.33V460.6c0-7.33-2.3-9.34-7.22-9.34H75V492.4Z" transform="translate(-0.92)"/><path d="M112.25,405.65c0-15.48,12-20,22.62-20,10.82,0,22.79,4.5,22.79,20v83.26c0,15.47-12,20-22.79,20-10.65,0-22.62-4.5-22.62-20V405.65Zm17.37,81.75c0,6,1.8,7.33,5.41,7.33,3.44,0,5.24-1.33,5.24-7.33V407.15c0-6-1.8-7.32-5.24-7.32-3.61,0-5.41,1.32-5.41,7.32v80.26Z" transform="translate(-0.92)"/><path d="M180.29,388l5.41,49.45c1.31,11.66,2.63,34.8,3.94,46.62H190c1-14.32,2.29-28.48,3.45-42.63L198.65,388H216L202.26,506.56H176L162.91,388h17.38Z" transform="translate(-0.92)"/><path d="M228.82,388H254.9l13.28,118.56H250.63l-3.28-32.14h-12.3l-3.77,32.14H215.55Zm16.89,70.94-3.61-49.29H241l-4.26,49.29h9Z" transform="translate(-0.92)"/><path d="M319.17,431.29V405.65c0-15.48-12-20-22.8-20-10.65,0-22.62,4.5-22.62,20v83.26c0,15.47,12,20,22.62,20,10.83,0,22.8-4.5,22.8-20V447.47H296.81v14.19h5v25.75c0,6-1.81,7.32-5.24,7.32-3.62,0-5.41-1.33-5.41-7.32V407.15c0-6,1.8-7.32,5.41-7.32,3.43,0,5.24,1.32,5.24,7.32v24.14h17.38Z" transform="translate(-0.92)"/><path d="M239.47,29.07c50.82,16.75,91,57.51,107.45,109.11V29.07H239.47ZM28.62,138.18c16.5-51.6,56.63-92.36,107.44-109.11H28.62V138.18Zm0,105V352.31H136C85.24,335.55,45.11,294.8,28.62,243.2M239.47,352.31H346.93V243.21c-16.5,51.6-56.64,92.34-107.45,109.1" transform="translate(-0.92)"/><path d="M200.32,229a39.1,39.1,0,0,1-12.56,2.09c-22,0-39.79-18.09-39.79-40.41s17.81-40.41,39.79-40.41,39.79,18.09,39.79,40.41A40.89,40.89,0,0,1,226.2,201l41.68,38.93a95.73,95.73,0,0,0,13.5-49.2c0-52.51-41.92-95.07-93.63-95.07s-93.61,42.56-93.61,95.07,41.91,95.07,93.61,95.07a92.22,92.22,0,0,0,54.37-17.7Z" transform="translate(-0.92)" style="fill:#e2001a"/><path d="M167.24,190.65a20.54,20.54,0,1,1,20.54,20.86,20.69,20.69,0,0,1-20.54-20.86m8.53,0a12,12,0,1,0,12-12.18,12.13,12.13,0,0,0-12,12.18" transform="translate(-0.92)"/></g></svg>