<svg id="Layer_1" data-name="Layer 1" xmlns="http://www.w3.org/2000/svg" viewBox="0 0 50.6 33.4"><title>news</title><path d="M25.42,18.27H14.11a1,1,0,0,0,0,2H25.42A1,1,0,1,0,25.42,18.27Z" style="fill:#1d1d1b;stroke:#000;stroke-miterlimit:10"/><path d="M25.42,12.7H14.11a1,1,0,0,0,0,2H25.42A1,1,0,1,0,25.42,12.7Z" style="fill:#1d1d1b;stroke:#000;stroke-miterlimit:10"/><path d="M25.42,24.27H14.11a1,1,0,1,0,0,2H25.42A1,1,0,1,0,25.42,24.27Z" style="fill:#1d1d1b;stroke:#000;stroke-miterlimit:10"/><path d="M25.42,6.56H14.11a1,1,0,0,0,0,2H25.42A1,1,0,1,0,25.42,6.56Z" style="fill:#1d1d1b;stroke:#000;stroke-miterlimit:10"/><path d="M42.75,24.27H31.43a1,1,0,0,0,0,2H42.75A1,1,0,1,0,42.75,24.27Z" style="fill:#1d1d1b;stroke:#000;stroke-miterlimit:10"/><path d="M45.45,0.5H7.81a1,1,0,0,0-1,1V3.15H1.5a1,1,0,0,0-1,1v24.6A4.15,4.15,0,0,0,4.65,32.9H45.57a4.54,4.54,0,0,0,4.53-4.53V5.16A4.66,4.66,0,0,0,45.45.5ZM2.5,28.75V5.15H6.81V28.73A2.16,2.16,0,0,1,2.5,28.75Zm45.6-.38a2.53,2.53,0,0,1-2.53,2.53H8.19a4.12,4.12,0,0,0,.62-2.17V2.5H45.45A2.66,2.66,0,0,1,48.1,5.16V28.36Z" style="fill:#1d1d1b;stroke:#000;stroke-miterlimit:10"/><path d="M31.43,19.7H42.75a1,1,0,0,0,1-1V7.56a1,1,0,0,0-1-1H31.43a1,1,0,0,0-1,1V18.7A1,1,0,0,0,31.43,19.7Zm1-11.14h9.31V17.7H32.43V8.56Z" style="fill:#1d1d1b;stroke:#000;stroke-miterlimit:10"/></svg>