<?xml version="1.0" encoding="utf-8"?>
<svg xmlns="http://www.w3.org/2000/svg" xmlns:xlink="http://www.w3.org/1999/xlink">
	<symbol viewBox="0 0 32 16" id="icon-overview">
		<title>Overview</title>
		<path d="M4,25.54H3a3,3,0,0,1-3-3V16.59a3,3,0,0,1,3-3H4a3,3,0,0,1,3,3v5.95A3,3,0,0,1,4,25.54ZM3,15.59a1,1,0,0,0-1,1v5.95a1,1,0,0,0,1,1H4a1,1,0,0,0,1-1V16.59a1,1,0,0,0-1-1H3Z" transform="translate(0 0)"/><path d="M26.25,25.54H11.31a3,3,0,0,1-3-3V16.59a3,3,0,0,1,3-3H26.25a3,3,0,0,1,3,3v5.95A3,3,0,0,1,26.25,25.54ZM11.31,15.59a1,1,0,0,0-1,1v5.95a1,1,0,0,0,1,1H26.25a1,1,0,0,0,1-1V16.59a1,1,0,0,0-1-1H11.31Z" transform="translate(0 0)"/><path d="M9.49,11.95H3a3,3,0,0,1-3-3V3A3,3,0,0,1,3,0H9.49a3,3,0,0,1,3,3V8.95A3,3,0,0,1,9.49,11.95ZM3,2A1,1,0,0,0,2,3V8.95a1,1,0,0,0,1,1H9.49a1,1,0,0,0,1-1V3a1,1,0,0,0-1-1H3Z" transform="translate(0 0)"/><path d="M26.25,11.95H17a3,3,0,0,1-3-3V3a3,3,0,0,1,3-3h9.22a3,3,0,0,1,3,3V8.95A3,3,0,0,1,26.25,11.95ZM17,2a1,1,0,0,0-1,1V8.95a1,1,0,0,0,1,1h9.22a1,1,0,0,0,1-1V3a1,1,0,0,0-1-1H17Z" transform="translate(0 0)"/>
	</symbol>
</svg>