<svg id="hammer_screwdriver" xmlns="http://www.w3.org/2000/svg" viewBox="0 0 49.8 41.58"><title>themes</title><path d="M19,15.9H7.17a1,1,0,1,0,0,2H19A1,1,0,1,0,19,15.9Z" style="fill:#1d1d1b;stroke:#231f20"/><path d="M19,21.66H7.17a1,1,0,0,0,0,2H19A1,1,0,1,0,19,21.66Z" style="fill:#1d1d1b;stroke:#231f20"/><path d="M19,27.42H7.17a1,1,0,0,0,0,2H19A1,1,0,1,0,19,27.42Z" style="fill:#1d1d1b;stroke:#231f20"/><path d="M43.12,5.67V2.23A1.71,1.71,0,0,0,42.62,1,1.74,1.74,0,0,0,41.39.5H32a1.73,1.73,0,0,0-1.73,1.73V5.63a12,12,0,0,0-5.36,2c-2.06-1.75-7-2.57-11.71-2.57C7.08,5.1.5,6.48,0.5,9.52V40.09a1,1,0,0,0,1,1H1.66a74,74,0,0,1,23.07,0,1,1,0,0,0,.17,0,1,1,0,0,0,.17,0,74,74,0,0,1,23.07,0h0.17a1,1,0,0,0,1-1V9.52C49.3,7.59,46.63,6.33,43.12,5.67ZM23.91,38.92a72.71,72.71,0,0,0-10.72-.76,72.67,72.67,0,0,0-10.71.76V9.52c0-.71,3.75-2.44,10.71-2.44S23.91,8.81,23.91,9.52v29.4ZM32.24,2.48h8.9V25.94L36.69,21.5l-4.45,4.44V2.48ZM47.32,38.92a76.91,76.91,0,0,0-21.43,0V9.52c0-.45,1.51-1.3,4.37-1.87V26.54a1.73,1.73,0,0,0,3,1.23l3.48-3.47,3.48,3.47a1.77,1.77,0,0,0,1.88.38,1.73,1.73,0,0,0,1.07-1.6V7.68c2.75,0.57,4.2,1.4,4.2,1.84v29.4Z" style="fill:#1d1d1b;stroke:#231f20"/></svg>